<?xml version="1.0" standalone="no"?>
<!DOCTYPE svg PUBLIC "-//W3C//DTD SVG 20010904//EN"
 "http://www.w3.org/TR/2001/REC-SVG-20010904/DTD/svg10.dtd">
<svg version="1.0" xmlns="http://www.w3.org/2000/svg"
 width="500.000000pt" height="500.000000pt" viewBox="0 0 500.000000 500.000000"
 preserveAspectRatio="xMidYMid meet">
<metadata>
Created by potrace 1.14, written by Peter Selinger 2001-2017
</metadata>
<g transform="translate(0.000000,500.000000) scale(0.100000,-0.100000)"
fill="#000000" stroke="none">
<path d="M2407 4954 c-1 -1 -42 -4 -92 -7 -119 -7 -313 -41 -455 -79 -677
-180 -1255 -657 -1563 -1290 -61 -124 -118 -268 -142 -356 -35 -124 -55 -210
-65 -267 -5 -33 -12 -71 -14 -85 -23 -130 -37 -490 -22 -565 2 -11 7 -51 11
-90 3 -38 10 -88 15 -110 5 -22 11 -57 14 -77 19 -125 103 -392 162 -513 19
-38 34 -75 34 -82 0 -6 3 -13 8 -15 4 -1 27 -42 51 -90 139 -275 395 -572 676
-785 344 -261 740 -419 1195 -478 102 -13 471 -14 548 -1 18 3 52 8 75 11 82
11 166 27 232 43 139 34 398 124 426 148 8 8 19 14 24 14 39 0 423 228 455
270 3 3 14 13 26 21 81 56 274 240 371 355 355 421 569 988 576 1530 1 114 -9
330 -17 343 -2 3 -6 29 -10 56 -8 70 -35 215 -45 245 -5 14 -19 61 -31 105
-131 465 -455 936 -850 1235 -259 197 -483 313 -770 401 -52 16 -108 33 -125
39 -28 8 -155 33 -239 46 -21 3 -47 7 -57 9 -56 11 -393 27 -402 19z m-154
-836 c-3 -18 -8 -35 -10 -37 -6 -8 -20 13 -27 42 -6 24 -4 27 19 27 22 0 24
-3 18 -32z"/>
</g>
</svg>
